Coordinates
version=1
nRows=14
nColumns=33
inDegrees=yes

Units are S.I. units (second, meters, Newtons, ...)
Angles are in degrees.

endheader
time	ground_thorax_rot_x	ground_thorax_rot_y	ground_thorax_rot_z	ground_thorax_tx	ground_thorax_ty	ground_thorax_tz	clav_prot_r	clav_elev_r	scapula_abduction_r	scapula_elevation_r	scapula_upward_rot_r	scapula_winging_r	shoulder_elv_r	plane_of_elev_r	axial_rot_r	elbow_flexion_r	pro_sup_r	wrist_flex_r	wrist_dev_r	clav_prot_l	clav_elev_l	scapula_abduction_l	scapula_elevation_l	scapula_upward_rot_l	scapula_winging_l	shoulder_elv_l	plane_of_elev_l	axial_rot_l	elbow_flexion_l	pro_sup_l	wrist_flex_l	wrist_dev_l
      4.20000000	    -37.60039415	    -10.55639664	     13.18080241	   -180.76824113	    816.47694892	      5.53086051	      7.36672820	    -45.00000000	     43.70740676	    -45.00000000	    -21.56317208	   2061.38437892	   -471.52768366	    148.19651442	   -119.45842921	   1091.17227219	      0.22181634	     17.64081720	     11.69277826	     -4.41686674	     41.13927533	    -45.00000000	    -45.00000000	     45.00000000	   -597.45754990	    804.17455433	     10.65506844	    179.99999979	   1812.54454267	    213.80977161	      9.66034048	    -13.59892362
      4.21000000	    -37.63753681	    -10.45904879	     12.64324365	   -176.91118320	    813.95570841	      5.48664473	      7.54991573	    -45.00000000	     44.54083886	    -45.00000000	    -20.01823904	   2061.07040141	   -472.26830906	    148.10402501	   -119.02574037	   1091.02432315	      0.18997791	     17.45564776	     11.76459232	     -5.22432617	     41.14257560	    -45.00000000	    -45.00000000	     45.00000000	   -596.88628790	    803.28504124	     11.06791358	    179.99999979	   1812.40706057	    214.52950323	      9.57887752	    -13.49305326
      4.22000000	    -37.54345748	    -11.18961719	     13.30938883	   -172.99402936	    811.38299789	      5.44282627	      7.25909813	    -45.00000000	     44.13313054	    -45.00000000	    -20.69157875	   2061.85744938	   -472.28765871	    148.45583830	   -119.20120010	   1090.97700857	      0.21406214	     17.30794125	     12.15216375	     -4.35406395	     41.22855816	    -45.00000000	    -45.00000000	     45.00000000	   -597.23100039	    803.48253124	     10.42174027	    179.99999979	   1812.35118290	    215.08820399	      9.41748246	    -13.32591910
      4.23000000	    -37.77264450	    -11.26274435	     13.24282162	   -169.02934447	    808.77629801	      5.39853605	      7.01018746	    -45.00000000	     44.02756605	    -45.00000000	    -22.09764307	   2061.55982523	   -473.32733449	    147.25635798	   -119.24850372	   1090.65066163	      0.19881337	     17.35647623	     11.36217343	     -1.70275600	     43.04979518	    -45.00000000	    -45.00000000	     45.00000000	   -597.34178521	    803.14713923	     10.44062095	    179.99999979	   1812.22843994	    215.54515633	     10.33471688	    -14.12480499
      4.24000000	    -37.51651490	    -11.86903726	     13.48279632	   -165.03121381	    806.14817959	      5.35249287	      7.33124550	    -45.00000000	     44.37389279	    -45.00000000	    -20.36679519	   2062.43559657	   -473.09075432	    148.69324831	   -118.91039703	   1090.85506107	      0.61540590	     17.01879490	     12.52358269	     -4.36823573	     41.27497137	    -45.00000000	    -45.00000000	     45.00000000	   -596.87219461	    802.88367777	     10.27112718	    179.99999979	   1812.10996813	    216.31695078	      9.08145585	    -12.99600268
      4.25000000	    -37.60348299	    -11.71481849	     12.85242507	   -161.01198660	    803.50785624	      5.30591587	      7.46819204	    -45.00000000	     45.00000000	    -45.00000000	    -18.67536769	   2062.23474821	   -473.76848348	    148.71252442	   -118.39123110	   1090.72142507	      0.99660139	     16.83052385	     12.65476344	     -5.23232224	     41.31377820	    -45.00000000	    -45.00000000	     45.00000000	   -596.27841600	    801.93878278	     10.69585030	    179.99999979	   1811.96860099	    217.16330908	      8.85913722	    -12.80287130
      4.26000000	    -37.67047631	    -11.88419797	     12.74181249	   -156.97902060	    800.85839888	      5.26119099	      7.46560619	    -45.00000000	     45.00000000	    -45.00000000	    -18.35132926	   2062.62049700	   -474.18891257	    148.88035995	   -117.98055553	   1090.62857791	      1.39526763	     16.67215312	     12.90598244	     -5.35308470	     41.33645069	    -45.00000000	    -45.00000000	     45.00000000	   -596.12280069	    801.48656203	     10.63503864	    179.99999979	   1811.85917115	    217.94539997	      8.63790166	    -12.61529620
      4.27000000	    -37.61211567	    -12.63298904	     13.55881277	   -152.93743035	    798.20451914	      5.22241815	      7.28374792	    -45.00000000	     44.77241923	    -45.00000000	    -19.12770803	   2062.98798808	   -474.51083699	    149.19499899	   -117.88102725	   1090.58842724	      1.65236746	     16.65196828	     12.92830685	     -4.02598765	     41.90885180	    -45.00000000	    -45.00000000	     45.00000000	   -596.53837763	    801.83546977	      9.93839063	    179.99999979	   1812.00481194	    218.48409420	      8.70276057	    -12.58846015
      4.28000000	    -37.68597171	    -12.67307371	     13.04826075	   -148.89119999	    795.55144123	      5.19306689	      7.37251357	    -45.00000000	     45.00000000	    -45.00000000	    -18.02821192	   2063.48707814	   -474.86920304	    149.51307055	   -117.32366050	   1090.43973193	      2.17070865	     16.41444701	     13.43195937	     -4.71153452	     41.50824498	    -45.00000000	    -45.00000000	     45.00000000	   -596.02496311	    801.11748266	     10.12130470	    179.99999979	   1811.83879892	    219.13974273	      8.18460309	    -12.13118473
      4.29000000	    -37.69584657	    -12.72867935	     12.82740420	   -144.84712786	    792.91281132	      5.17673008	      7.02450867	    -45.00000000	     45.00000000	    -45.00000000	    -17.56566949	   2063.86777445	   -475.18200731	    149.71776994	   -117.01216930	   1090.36452058	      2.61160266	     16.33828143	     13.51484829	     -4.82171947	     41.38336793	    -45.00000000	    -44.71547484	     45.00000000	   -596.17996303	    800.84148677	      9.97741216	    179.99999979	   1811.79108882	    219.73160930	      7.97659486	    -11.93440661
      4.30000000	    -37.59843618	    -12.82223467	     12.73280406	   -140.80963951	    790.30357570	      5.17510323	      6.74274783	    -45.00000000	     45.00000000	    -45.00000000	    -17.22774630	   2064.39475107	   -475.24332808	    149.97998669	   -116.65262585	   1090.19181822	      3.12128594	     16.23732515	     13.82545149	     -4.07337973	     41.31406852	    -45.00000000	    -43.99821320	     45.00000000	   -596.74640605	    800.87261567	      9.71282857	    179.99999979	   1811.62087619	    220.19861233	      7.89122599	    -11.86188741
      4.31000000	    -37.48767409	    -12.68254674	     12.55382624	   -136.78819670	    787.74575339	      5.18965875	      6.52841917	    -45.00000000	     45.00000000	    -45.00000000	    -16.47046669	   2064.51667841	   -475.56434610	    150.10090343	   -116.31161327	   1089.97062486	      3.69909052	     16.11595264	     13.88680480	     -4.61070489	     40.67841287	    -45.00000000	    -43.53508758	     45.00000000	   -596.82269717	    800.34138440	      9.75656181	    179.99999979	   1811.52219981	    220.71683910	      7.52284733	    -11.54538569
      4.32000000	    -37.45959081	    -12.70071760	     12.39529797	   -132.78869132	    785.25878421	      5.22122953	      6.38229202	    -45.00000000	     45.00000000	    -45.00000000	    -15.91001219	   2064.44475715	   -476.18822661	    150.00944978	   -115.98851564	   1089.66818728	      4.35628009	     16.04016890	     13.79462277	     -5.19287723	     40.26337154	    -45.00000000	    -42.99896446	     45.00000000	   -596.89327983	    800.05310867	      9.99257693	    179.99999979	   1811.58117186	    221.32559796	      7.32863346	    -11.37464670
      4.33000000	    -37.38203442	    -12.63629993	     12.16249945	   -128.81508295	    782.85888026	      5.27233897	      6.10988923	    -45.00000000	     45.00000000	    -45.00000000	    -15.30304875	   2064.82867359	   -476.38998552	    150.23802300	   -115.64023009	   1089.48865036	      5.12641415	     15.99309411	     13.91172815	     -5.24048278	     39.92674433	    -45.00000000	    -42.36686260	     45.00000000	   -597.23943273	    799.80503299	      9.92078850	    179.99999979	   1811.45946924	    221.92115372	      7.11937312	    -11.22962792
